<?xml version="1.0" encoding="utf-8"?>
<!-- Generator: Adobe Illustrator 19.1.0, SVG Export Plug-In . SVG Version: 6.00 Build 0)  -->
<svg version="1.1" id="Layer_1" xmlns="http://www.w3.org/2000/svg" xmlns:xlink="http://www.w3.org/1999/xlink" x="0px" y="0px"
	 viewBox="0 0 426.4 420" style="enable-background:new 0 0 426.4 420;" xml:space="preserve">
<style type="text/css">
	.st0{fill:#F1F1F1;}
	.st1{fill:#6C6A6A;}
</style>
<g>
	<path class="st0" d="M96.3,251c4.5-3.8,31.7-22,38.7-15.8c26.9,23.9,53.7,31.7,77.3,31.5c23.7,0.2,50.5-7.6,77.3-31.5
		c7.1-6.3,34.2,11.9,38.7,15.8c24.2,20.6,35.4,62.3,36,96.5c32.9-36.4,52.9-84.6,52.9-137.5c0-113.2-91.8-205-205-205
		S7.4,96.8,7.4,210c0,52.9,20,101.1,52.9,137.5C60.9,313.3,72.2,271.6,96.3,251z M211.8,89.1c45.1,0,81.7,36.6,81.7,81.7
		s-36.6,81.7-81.7,81.7s-81.7-36.6-81.7-81.7S166.7,89.1,211.8,89.1z"/>
	<circle class="st1" cx="211.8" cy="170.7" r="81.7"/>
	<path class="st1" d="M364.5,347.5c-0.5-34.2-11.8-75.9-36-96.5c-4.5-3.8-31.7-22-38.7-15.8c-26.9,23.9-53.7,31.7-77.3,31.5
		c-23.7,0.2-50.5-7.6-77.3-31.5c-7.1-6.3-34.2,11.9-38.7,15.8c-24.2,20.6-35.4,62.3-36,96.5c37.5,41.5,91.7,67.5,152.1,67.5
		S326.9,388.9,364.5,347.5z"/>
</g>
</svg>
